<?xml version="1.0" standalone="no"?>
<!DOCTYPE svg PUBLIC "-//W3C//DTD SVG 20010904//EN"
 "http://www.w3.org/TR/2001/REC-SVG-20010904/DTD/svg10.dtd">
<svg version="1.0" xmlns="http://www.w3.org/2000/svg"
 width="790.000000pt" height="790.000000pt" viewBox="0 0 790.000000 790.000000"
 preserveAspectRatio="xMidYMid meet">
<metadata>
Created by potrace 1.14, written by Peter Selinger 2001-2017
</metadata>
<g transform="translate(0.000000,790.000000) scale(0.100000,-0.100000)"
fill="#000000" stroke="none">
<path d="M3731 7689 c-760 -68 -1441 -474 -1866 -1114 -232 -349 -367 -741
-405 -1175 -6 -73 -10 -1050 -10 -2657 l0 -2543 2500 0 2500 0 0 2543 c0 1607
-4 2584 -10 2657 -53 607 -300 1141 -724 1566 -526 525 -1249 788 -1985 723z
m-435 -995 c42 -20 64 -59 64 -115 0 -33 -6 -47 -34 -75 -29 -29 -41 -34 -79
-34 -128 0 -169 175 -52 226 40 18 60 17 101 -2z m2427 -744 c21 -24 27 -40
27 -76 0 -97 -111 -150 -192 -93 -37 27 -54 81 -39 130 27 89 139 110 204 39z
m-3447 -534 c29 -29 34 -41 34 -81 0 -40 -5 -52 -34 -81 -29 -29 -41 -34 -81
-34 -58 0 -99 27 -115 75 -16 47 -4 93 32 127 25 23 39 28 80 28 44 0 54 -4
84 -34z m1622 -222 c28 -19 52 -65 52 -99 0 -34 -24 -80 -52 -99 -12 -9 -43
-16 -68 -16 -52 0 -83 18 -105 60 -28 53 -11 120 37 154 12 9 43 16 68 16 25
0 56 -7 68 -16z m-1141 -866 c5 -7 29 -65 53 -128 50 -134 150 -338 222 -454
139 -222 381 -494 576 -646 285 -223 611 -384 947 -470 209 -54 330 -70 550
-77 151 -4 194 -9 208 -21 42 -37 13 -73 -152 -183 -494 -333 -1123 -376
-1656 -115 -272 134 -501 335 -661 581 -264 407 -341 913 -208 1371 39 137 48
154 82 154 16 0 34 -6 39 -12z m2283 -274 c80 -48 79 -161 -2 -209 -43 -25
-103 -15 -142 24 -57 57 -36 161 39 191 33 14 75 11 105 -6z m-2790 -2379 c35
-18 60 -62 60 -105 0 -89 -92 -147 -170 -107 -33 16 -70 73 -70 107 0 34 37
91 70 107 34 17 75 16 110 -2z m3467 -529 c101 -110 -50 -263 -161 -165 -43
37 -54 81 -32 132 34 83 132 100 193 33z"/>
</g>
</svg>
